<svg width="50" height="50" viewBox="0 0 50 50" fill="none" xmlns="http://www.w3.org/2000/svg">
<g clip-path="url(#clip0_1_93)">
<path d="M43.75 6.25V10.4167C43.75 30.4729 32.5562 39.5833 18.75 39.5833H10.9229C10.5833 41.4833 10.4167 43.5563 10.4167 45.8333H6.25C6.25 42.9938 6.49167 40.4167 6.97083 38.0583C6.49167 35.3625 6.25 31.7042 6.25 27.0833C6.25 15.5771 15.5771 6.25 27.0833 6.25C31.25 6.25 35.4167 8.33333 43.75 6.25ZM27.0833 10.4167C17.8792 10.4167 10.4167 17.8792 10.4167 27.0833C10.4167 27.8375 10.4229 28.5646 10.4375 29.2625C13.05 25.1417 16.8771 21.8854 21.8833 19.025L23.95 22.6417C18.0021 26.0417 14.0562 29.9042 12.0333 35.4167H18.75C31.2812 35.4167 39.3146 27.1396 39.5771 11.225C36.7187 11.5021 34.0625 11.325 30.7854 10.8333C28.3896 10.4729 27.9187 10.4167 27.0833 10.4167Z" fill="#0E1B1B"/>
</g>
<defs>
<clipPath id="clip0_1_93">
<rect width="50" height="50" fill="white"/>
</clipPath>
</defs>
</svg>
