<svg width="50" height="50" viewBox="0 0 50 50" fill="none" xmlns="http://www.w3.org/2000/svg">
<path d="M11.1042 6.81449C12.4938 6.31862 14.0012 6.25601 15.4272 6.63492C16.8532 7.01383 18.1307 7.81643 19.091 8.9367C20.0512 10.057 20.649 11.4422 20.8053 12.9093C20.9617 14.3765 20.6693 15.8566 19.9667 17.1541L42.2771 39.4666L39.3313 42.4124L17.0188 20.0999C15.721 20.7997 14.2417 21.0899 12.7757 20.9322C11.3097 20.7745 9.92596 20.1764 8.80671 19.2166C7.68745 18.2568 6.88526 16.9804 6.50584 15.5557C6.12642 14.1309 6.18758 12.6246 6.68127 11.2353L11.3417 15.8957C11.63 16.1942 11.9748 16.4323 12.356 16.5961C12.7373 16.7598 13.1474 16.846 13.5623 16.8497C13.9772 16.8533 14.3887 16.7742 14.7728 16.6171C15.1568 16.4599 15.5058 16.2279 15.7992 15.9345C16.0926 15.6411 16.3246 15.2922 16.4818 14.9081C16.6389 14.524 16.7179 14.1125 16.7143 13.6976C16.7107 13.2827 16.6245 12.8726 16.4608 12.4914C16.297 12.1101 16.0589 11.7653 15.7604 11.477L11.1021 6.81241L11.1042 6.81449ZM32.7021 10.7395L39.3313 7.05616L42.2771 10.002L38.5938 16.6312L34.9104 17.3687L30.4938 21.7874L27.5459 18.8416L31.9646 14.4228L32.7021 10.7395ZM18.7063 27.6812L21.6521 30.627L10.6042 41.6749C10.2286 42.0516 9.72306 42.2703 9.19133 42.2863C8.6596 42.3022 8.14192 42.1141 7.74442 41.7606C7.34693 41.407 7.09973 40.9148 7.05351 40.3849C7.00729 39.8549 7.16556 39.3273 7.49585 38.9103L7.65835 38.7291L18.7063 27.6812Z" fill="#0E1B1B"/>
</svg>
