<svg width="123" height="25" viewBox="0 0 123 25" fill="none" xmlns="http://www.w3.org/2000/svg">
<path d="M12.8281 24L11.5156 18.2344H5.5625L4.25 24H0L5.65625 1.0625H11.4219L17.0938 24H12.8281ZM10.7188 14.4688L9.5 9.15625C9.42708 8.83333 9.26042 8.02604 9 6.73438C8.75 5.43229 8.59896 4.5625 8.54688 4.125C8.41146 5.02083 8.23958 6.01042 8.03125 7.09375C7.82292 8.16667 7.28125 10.625 6.40625 14.4688H10.7188ZM23.3594 15.1094V24H19.1094V1.15625H24.6719C27.026 1.15625 28.7604 1.71354 29.875 2.82812C31 3.94271 31.5625 5.64583 31.5625 7.9375C31.5625 10.8229 30.5885 12.8385 28.6406 13.9844L33.0312 24H28.4844L24.875 15.1094H23.3594ZM23.3594 11.4531H24.4531C25.4531 11.4531 26.1719 11.1719 26.6094 10.6094C27.0469 10.0365 27.2656 9.1875 27.2656 8.0625C27.2656 6.89583 27.0312 6.06771 26.5625 5.57812C26.1042 5.07812 25.3906 4.82812 24.4219 4.82812H23.3594V11.4531ZM42.6875 4.54688C41.4688 4.54688 40.5052 5.26042 39.7969 6.6875C39.099 8.11458 38.75 10.099 38.75 12.6406C38.75 17.9323 40.1302 20.5781 42.8906 20.5781C44.099 20.5781 45.3646 20.1927 46.6875 19.4219V23.2031C45.5729 23.9427 44.1458 24.3125 42.4062 24.3125C39.8333 24.3125 37.8542 23.2917 36.4688 21.25C35.0938 19.1979 34.4062 16.3177 34.4062 12.6094C34.4062 8.90104 35.1146 6.01042 36.5312 3.9375C37.9583 1.86458 39.9375 0.828125 42.4688 0.828125C43.3021 0.828125 44.099 0.942708 44.8594 1.17188C45.6302 1.40104 46.4531 1.80208 47.3281 2.375L45.9219 5.82812C45.4531 5.50521 44.9531 5.21354 44.4219 4.95312C43.8906 4.68229 43.3125 4.54688 42.6875 4.54688ZM64.0312 24H59.7812V13.9844H54.1719V24H49.9219V1.15625H54.1719V10.2344H59.7812V1.15625H64.0312V24ZM68.8438 24V1.15625H72.8438V24H68.8438ZM84.6875 24H80.4531V4.89062H76.0781V1.15625H89.0625V4.89062H84.6875V24ZM101.234 24L99.9219 18.2344H93.9688L92.6562 24H88.4062L94.0625 1.0625H99.8281L105.5 24H101.234ZM99.125 14.4688L97.9062 9.15625C97.8333 8.83333 97.6667 8.02604 97.4062 6.73438C97.1562 5.43229 97.0052 4.5625 96.9531 4.125C96.8177 5.02083 96.6458 6.01042 96.4375 7.09375C96.2292 8.16667 95.6875 10.625 94.8125 14.4688H99.125ZM118.328 24L117.016 18.2344H111.062L109.75 24H105.5L111.156 1.0625H116.922L122.594 24H118.328ZM116.219 14.4688L115 9.15625C114.927 8.83333 114.76 8.02604 114.5 6.73438C114.25 5.43229 114.099 4.5625 114.047 4.125C113.911 5.02083 113.74 6.01042 113.531 7.09375C113.323 8.16667 112.781 10.625 111.906 14.4688H116.219Z" fill="white"/>
</svg>
