<svg width="50" height="50" viewBox="0 0 50 50" fill="none" xmlns="http://www.w3.org/2000/svg">
<g clip-path="url(#clip0_1_103)">
<path d="M25 27.0834C28.4521 27.0834 31.25 29.8813 31.25 33.3334C31.25 35.1042 30.5146 36.7001 29.3334 37.8376L25.3542 41.6668H31.25V45.8334H18.75V42.2417L26.4438 34.8355C26.8396 34.4543 27.0834 33.923 27.0834 33.3334C27.0834 32.1834 26.15 31.2501 25 31.2501C23.85 31.2501 22.9167 32.1834 22.9167 33.3334H18.75C18.75 29.8813 21.5479 27.0834 25 27.0834ZM37.5 27.0834V35.4167H41.6667V27.0834H45.8334V45.8334H41.6667V39.5834H33.3334V27.0834H37.5ZM8.33335 25.0001C8.33335 30.2647 10.7729 34.9584 14.5834 38.0126V43.0459C8.35627 39.4438 4.16669 32.7126 4.16669 25.0001H8.33335ZM25 4.16675C35.8021 4.16675 44.6854 12.3897 45.7292 22.9167H41.5375C40.5125 14.6959 33.5 8.33342 25 8.33342C19.2709 8.33342 14.2167 11.223 11.2188 15.6251H16.6667V19.7917H4.16669V7.29175H8.33335V12.5001C12.1334 7.43758 18.1854 4.16675 25 4.16675Z" fill="#0E1B1B"/>
</g>
<defs>
<clipPath id="clip0_1_103">
<rect width="50" height="50" fill="white"/>
</clipPath>
</defs>
</svg>
